{
.appVersion = "3151";
.formatVersion = 3;
customParameters = (
{
name = vendorID;
value = COMM;
},
{
name = panose;
value = (
2,
13,
2,
4,
3,
5,
2,
12,
2,
3
);
},
{
name = unicodeRanges;
value = (
0,
1,
2
);
},
{
name = codePageRanges;
value = (
"1252",
"1250",
"1254",
"1257",
"bit 29"
);
},
{
name = fsType;
value = (
2
);
},
{
name = "Family Alignment Zones";
value = (
{
pos = 715;
size = 8;
},
{
pos = 685;
size = 15;
},
{
pos = 517;
size = 7;
},
{
pos = 0;
size = "-11";
},
{
pos = "-147";
size = "-22";
}
);
},
{
name = blueScale;
value = 0.0384;
},
{
name = glyphOrder;
value = (
.notdef,
Eth,
eth,
Lslash,
lslash,
Scaron,
scaron,
Yacute,
yacute,
Thorn,
thorn,
Zcaron,
zcaron,
onehalf,
onequarter,
onesuperior,
threequarters,
threesuperior,
twosuperior,
brokenbar,
minus,
multiply,
space,
exclam,
quotedbl,
numbersign,
dollar,
percent,
ampersand,
quotesingle,
parenleft,
parenright,
asterisk,
plus,
comma,
hyphen,
period,
slash,
zero,
one,
two,
three,
four,
five,
six,
seven,
eight,
nine,
colon,
semicolon,
less,
equal,
greater,
question,
at,
A,
B,
C,
D,
E,
F,
G,
H,
I,
J,
K,
L,
M,
N,
O,
P,
Q,
R,
S,
T,
U,
V,
W,
X,
Y,
Z,
bracketleft,
backslash,
bracketright,
asciicircum,
underscore,
grave,
a,
b,
c,
d,
e,
f,
g,
h,
i,
j,
k,
l,
m,
n,
o,
p,
q,
r,
s,
t,
u,
v,
w,
x,
y,
z,
braceleft,
bar,
braceright,
asciitilde,
Adieresis,
Aring,
Ccedilla,
Eacute,
Ntilde,
Odieresis,
Udieresis,
aacute,
agrave,
acircumflex,
adieresis,
atilde,
aring,
ccedilla,
eacute,
egrave,
ecircumflex,
edieresis,
iacute,
igrave,
icircumflex,
idieresis,
ntilde,
oacute,
ograve,
ocircumflex,
odieresis,
otilde,
uacute,
ugrave,
ucircumflex,
udieresis,
dagger,
degree,
cent,
sterling,
section,
bullet,
paragraph,
germandbls,
registered,
copyright,
trademark,
acute,
dieresis,
notequal,
AE,
Oslash,
infinity,
plusminus,
lessequal,
greaterequal,
yen,
mu,
partialdiff,
summation,
product,
pi,
integral,
ordfeminine,
ordmasculine,
Omega,
ae,
oslash,
questiondown,
exclamdown,
logicalnot,
radical,
florin,
approxequal,
Delta,

glyphs = (
{
glyphname = zero;
kernLeft = zero;
kernRight = zero;
lastChange = "2023-04-13 19:33:06 +0000";
layers = (
{
hints = (
{
horizontal = 1;
place = (-7, 14);
place = (-7, 14);
type = Stem;
},
{
horizontal = 1;
place = (679, 14);
place = (679, 14);
type = Stem;
},
{
place = (50, 15);
place = (50, 15);
type = Stem;
},
{
place = (554, 15);
place = (554, 15);
type = Stem;
}
);
layerId = m01;
shapes = (
{
closed = 1;
nodes = (
(139,693,o),
(50,435,o),
(50,252,cs),
(50,95,o),
(134,-7,o),
(272,-7,cs),
(486,-7,o),
(569,246,o),
(569,434,cs),
(569,587,o),
(490,693,o),
(351,693,cs)
);
},
{
closed = 1;
nodes = (
(482,679,o),
(554,579,o),
(554,434,cs),
(554,252,o),
(476,7,o),
(272,7,cs),
(142,7,o),
(65,103,o),
(65,252,cs),
(65,429,o),
(149,679,o),
(351,679,cs)
);
},
{
closed = 1;
nodes = (
(697,818,l),
(502,-182,l),
(-86,-182,l),
(109,818,l)
);
},
{
closed = 1;
nodes = (
(0,-182,l),
(588,-182,l),
(588,818,l),
(0,818,l)
);
}
);
width = 588;
}
);
note = zero;
unicode = 48;
},
{
glyphname = one;
kernLeft = one;
kernRight = one;
lastChange = "2023-04-03 23:36:58 +0000";
layers = (
{
hints = (
{
horizontal = 1;
place = (0, 21);
target = up;
type = BottomGhost;
},
{
horizontal = 1;
place = (535, 14);
place = (535, 14);
type = Stem;
},
{
horizontal = 1;
place = (688, -20);
target = down;
type = TopGhost;
},
{
place = (59, 204);
place = (59, 204);
type = Stem;
}
);
layerId = m01;
shapes = (
{
closed = 1;
nodes = (
(215,578,o),
(153,550,o),
(62,549,c),
(59,535,l),
(136,536,o),
(196,555,o),
(235,621,c),
(115,0,l),
(130,0,l),
(263,688,l),
(248,688,l)
);
}
);
width = 267;
}
);
note = one;
unicode = 49;
},
{
glyphname = two;
kernLeft = two;
kernRight = two;
lastChange = "2023-04-03 23:40:04 +0000";
layers = (
{
hints = (
{
horizontal = 1;
place = (0, 14);
place = (0, 14);
type = Stem;
},
{
horizontal = 1;
place = (679, 14);
place = (679, 14);
type = Stem;
},
{
place = (493, 15);
place = (493, 15);
type = Stem;
}
);
layerId = m01;
shapes = (
{
closed = 1;
nodes = (
(81,461,l),
(105,587,o),
(175,679,o),
(310,679,cs),
(424,679,o),
(493,616,o),
(493,515,cs),
(493,400,o),
(409,357,o),
(282,299,cs),
(133,231,o),
(16,170,o),
(-18,0,c),
(424,0,l),
(427,14,l),
(1,14,l),
(35,162,o),
(148,223,o),
(289,286,cs),
(417,343,o),
(508,392,o),
(508,515,cs),
(508,624,o),
(431,693,o),
(310,693,cs),
(167,693,o),
(90,593,o),
(67,461,c)
);
}
);
width = 519;
}
);
note = two;
unicode = 50;
},
{
glyphname = three;
kernLeft = three;
kernRight = three;
lastChange = "2023-04-03 23:52:00 +0000";
layers = (
{
hints = (
{
horizontal = 1;
place = (-7, 14);
place = (-7, 14);
type = Stem;
},
{
horizontal = 1;
place = (357, 14);
place = (357, 14);
type = Stem;
},
{
horizontal = 1;
place = (679, 14);
place = (679, 14);
type = Stem;
},
{
place = (12, 15);
place = (12, 15);
type = Stem;
},
{
place = (478, 15);
place = (478, 15);
type = Stem;
},
{
place = (497, 15);
place = (497, 15);
type = Stem;
}
);
layerId = m01;
shapes = (
{
closed = 1;
nodes = (
(89,487,l),
(113,599,o),
(192,679,o),
(315,679,cs),
(411,679,o),
(497,630,o),
(497,526,cs),
(497,415,o),
(409,371,o),
(322,371,cs),
(256,371,l),
(254,357,l),
(317,357,ls),
(402,357,o),
(478,309,o),
(478,207,cs),
(478,82,o),
(377,7,o),
(250,7,cs),
(118,7,o),
(34,82,o),
(27,213,c),
(12,213,l),
(19,74,o),
(109,-7,o),
(250,-7,cs),
(385,-7,o),
(493,75,o),
(493,207,cs),
(493,293,o),
(440,347,o),
(372,363,c),
(372,363,l),
(451,378,o),
(512,430,o),
(512,526,cs),
(512,640,o),
(418,693,o),
(315,693,cs),
(184,693,o),
(99,607,o),
(73,487,c)
);
}
);
width = 524;
}
);
note = three;
unicode = 51;
},
{
glyphname = four;
kernLeft = four;
kernRight = four;
lastChange = "2023-04-03 23:53:41 +0000";
layers = (
{
hints = (
{
horizontal = 1;
place = (0, 21);
target = up;
type = BottomGhost;
},
{
horizontal = 1;
place = (195, 14);
place = (195, 14);
type = Stem;
},
{
horizontal = 1;
place = (692, -20);
target = down;
type = TopGhost;
},
{
place = (8, 493);
place = (8, 493);
type = Stem;
},
{
horizontal = 1;
place = (668, 24);
place = (668, 24);
type = Stem;
}
);
layerId = m01;
shapes = (
{
closed = 1;
nodes = (
(8,195,l),
(369,195,l),
(331,0,l),
(346,0,l),
(384,195,l),
(498,195,l),
(501,209,l),
(387,209,l),
(481,692,l),
(465,692,l),
(11,209,l)
);
},
{
closed = 1;
nodes = (
(461,668,l),
(371,209,l),
(30,209,l)
);
}
);
width = 528;
}
);
note = four;
unicode = 52;
},
{
glyphname = five;
kernLeft = five;
kernRight = five;
lastChange = "2023-04-04 01:35:25 +0000";
layers = (
{
hints = (
{
horizontal = 1;
place = (-8, 14);
place = (-8, 14);
type = Stem;
},
{
horizontal = 1;
place = (439, 14);
place = (439, 14);
type = Stem;
},
{
horizontal = 1;
place = (663, 14);
place = (663, 14);
type = Stem;
},
{
place = (8, 15);
place = (8, 15);
type = Stem;
},
{
place = (466, 15);
place = (466, 15);
type = Stem;
}
);
layerId = m01;
shapes = (
{
closed = 1;
nodes = (
(160,677,l),
(59,328,l),
(73,328,l),
(102,373,o),
(170,439,o),
(282,439,cs),
(382,439,o),
(466,373,o),
(466,252,cs),
(466,101,o),
(370,6,o),
(229,6,cs),
(115,6,o),
(36,79,o),
(23,187,c),
(8,187,l),
(19,73,o),
(105,-8,o),
(229,-8,cs),
(377,-8,o),
(481,94,o),
(481,252,cs),
(481,381,o),
(389,453,o),
(282,453,cs),
(185,453,o),
(122,407,o),
(85,366,c),
(85,366,l),
(171,663,l),
(501,663,l),
(504,677,l)
);
}
);
width = 501;
}
);
note = five;
unicode = 53;
},
{
glyphname = six;
kernLeft = six;
kernRight = six;
lastChange = "2023-04-04 18:12:59 +0000";
layers = (
{
hints = (
{
horizontal = 1;
place = (-7, 14);
place = (-7, 14);
type = Stem;
},
{
horizontal = 1;
place = (429, 14);
place = (429, 14);
type = Stem;
},
{
horizontal = 1;
place = (679, 14);
place = (679, 14);
type = Stem;
},
{
place = (47, 14);
place = (47, 14);
type = Stem;
},
{
place = (484, 15);
place = (484, 15);
type = Stem;
},
{
place = (515, 15);
place = (515, 15);
type = Stem;
}
);
layerId = m01;
shapes = (
{
closed = 1;
nodes = (
(522,624,o),
(460,693,o),
(346,693,cs),
(143,693,o),
(47,441,o),
(47,240,cs),
(47,98,o),
(115,-7,o),
(260,-7,cs),
(397,-7,o),
(499,95,o),
(499,239,cs),
(499,361,o),
(418,443,o),
(300,443,cs),
(165,443,o),
(78,347,o),
(61,240,c),
(61,240,l),
(64,445,o),
(157,679,o),
(346,679,cs),
(451,679,o),
(507,616,o),
(515,522,c),
(530,522,l)
);
},
{
closed = 1;
nodes = (
(410,429,o),
(484,353,o),
(484,239,cs),
(484,103,o),
(389,7,o),
(260,7,cs),
(144,7,o),
(70,85,o),
(70,205,cs),
(70,288,o),
(137,429,o),
(300,429,cs)
);
}
);
width = 541;
}
);
note = six;
unicode = 54;
},
{
glyphname = seven;
kernLeft = seven;
kernRight = seven;
lastChange = "2023-04-04 01:42:07 +0000";
layers = (
{
hints = (
{
horizontal = 1;
place = (0, 21);
target = up;
type = BottomGhost;
},
{
horizontal = 1;
place = (671, 14);
place = (671, 14);
type = Stem;
},
{
place = (83, 451);
place = (83, 451);
type = Stem;
}
);
layerId = m01;
shapes = (
{
closed = 1;
nodes = (
(83,671,l),
(510,671,l),
(264,462,o),
(159,257,o),
(106,0,c),
(121,0,l),
(174,252,o),
(273,454,o),
(531,671,c),
(534,685,l),
(86,685,l)
);
}
);
width = 470;
}
);
note = seven;
unicode = 55;
},
{
glyphname = eight;
kernLeft = eight;
kernRight = eight;
lastChange = "2023-04-04 18:16:01 +0000";
layers = (
{
hints = (
{
horizontal = 1;
place = (-7, 14);
place = (-7, 14);
type = Stem;
},
{
horizontal = 1;
place = (368, 14);
place = (368, 14);
type = Stem;
},
{
horizontal = 1;
place = (680, 14);
place = (680, 14);
type = Stem;
},
{
place = (19, 15);
place = (19, 15);
type = Stem;
},
{
place = (115, 15);
place = (115, 15);
type = Stem;
},
{
place = (499, 15);
place = (499, 15);
type = Stem;
},
{
place = (514, 15);
place = (514, 15);
type = Stem;
}
);
layerId = m01;
shapes = (
{
closed = 1;
nodes = (
(201,694,o),
(115,614,o),
(115,514,cs),
(115,448,o),
(160,400,o),
(235,379,c),
(235,379,l),
(93,366,o),
(19,278,o),
(19,175,cs),
(19,70,o),
(111,-7,o),
(263,-7,cs),
(421,-7,o),
(514,84,o),
(514,206,cs),
(514,291,o),
(454,354,o),
(361,372,c),
(361,372,l),
(468,388,o),
(529,448,o),
(529,532,cs),
(529,635,o),
(442,694,o),
(332,694,cs)
);
},
{
closed = 1;
nodes = (
(407,368,o),
(499,309,o),
(499,206,cs),
(499,92,o),
(413,7,o),
(263,7,cs),
(119,7,o),
(34,78,o),
(34,175,cs),
(34,283,o),
(118,368,o),
(280,368,cs)
);
},
{
closed = 1;
nodes = (
(434,680,o),
(514,627,o),
(514,532,cs),
(514,440,o),
(436,382,o),
(313,382,cs),
(209,382,o),
(130,429,o),
(130,514,cs),
(130,606,o),
(209,680,o),
(332,680,cs)
);
}
);
width = 547;
}
);
note = eight;
unicode = 56;
},
{
glyphname = nine;
kernLeft = nine;
kernRight = nine;
lastChange = "2023-04-04 02:05:56 +0000";
layers = (
{
hints = (
{
horizontal = 1;
place = (-7, 14);
place = (-7, 14);
type = Stem;
},
{
horizontal = 1;
place = (243, 14);
place = (243, 14);
type = Stem;
},
{
horizontal = 1;
place = (679, 14);
place = (679, 14);
type = Stem;
},
{
place = (54, 15);
place = (54, 15);
type = Stem;
},
{
place = (492, 14);
place = (492, 14);
type = Stem;
},
{
place = (23, 15);
place = (23, 15);
type = Stem;
}
);
layerId = m01;
shapes = (
{
closed = 1;
nodes = (
(391,243,o),
(476,340,o),
(492,446,c),
(489,241,o),
(416,7,o),
(211,7,cs),
(106,7,o),
(47,70,o),
(38,164,c),
(23,164,l),
(31,62,o),
(97,-7,o),
(211,-7,cs),
(430,-7,o),
(506,246,o),
(506,446,cs),
(506,587,o),
(437,693,o),
(292,693,cs),
(155,693,o),
(54,590,o),
(54,447,cs),
(54,325,o),
(136,243,o),
(254,243,cs)
);
},
{
closed = 1;
nodes = (
(144,257,o),
(69,333,o),
(69,447,cs),
(69,583,o),
(163,679,o),
(292,679,cs),
(434,679,o),
(483,578,o),
(483,481,cs),
(483,398,o),
(417,257,o),
(254,257,cs)
);
}
);
width = 528;
}
);
note = nine;
unicode = 57;
},
{
glyphname = A;
kernLeft = A;
kernRight = A;
lastChange = "2023-04-04 19:44:14 +0000";
layers = (
{
hints = (
{
horizontal = 1;
place = (0, 21);
target = up;
type = BottomGhost;
},
{
horizontal = 1;
place = (256, 14);
place = (256, 14);
type = Stem;
},
{
horizontal = 1;
place = (695, 20);
place = (695, 20);
type = Stem;
},
{
place = (-39, 565);
place = (-39, 565);
type = Stem;
}
);
layerId = m01;
shapes = (
{
closed = 1;
nodes = (
(-39,0,l),
(-24,0,l),
(119,256,l),
(457,256,l),
(512,0,l),
(526,0,l),
(374,715,l),
(360,715,l)
);
},
{
closed = 1;
nodes = (
(454,270,l),
(127,270,l),
(364,695,l)
);
}
);
width = 586;
}
);
note = A;
unicode = 65;
},
{
glyphname = B;
lastChange = "2023-04-04 19:44:20 +0000";
layers = (
{
hints = (
{
horizontal = 1;
place = (0, 14);
place = (0, 14);
type = Stem;
},
{
horizontal = 1;
place = (370, 14);
place = (370, 14);
type = Stem;
},
{
horizontal = 1;
place = (701, 14);
place = (701, 14);
type = Stem;
},
{
place = (573, 15);
place = (573, 15);
type = Stem;
},
{
place = (554, 15);
place = (554, 15);
type = Stem;
}
);
layerId = m01;
shapes = (
{
closed = 1;
nodes = (
(16,0,l),
(315,0,ls),
(448,0,o),
(569,70,o),
(569,222,cs),
(569,303,o),
(521,357,o),
(439,377,c),
(542,398,o),
(588,465,o),
(588,546,cs),
(588,668,o),
(490,715,o),
(393,715,cs),
(155,715,l)
);
},
{
closed = 1;
nodes = (
(392,701,ls),
(482,701,o),
(573,658,o),
(573,546,cs),
(573,455,o),
(509,384,o),
(372,384,cs),
(107,384,l),
(168,701,l)
);
},
{
closed = 1;
nodes = (
(372,370,ls),
(480,370,o),
(554,317,o),
(554,222,cs),
(554,81,o),
(439,14,o),
(314,14,cs),
(35,14,l),
(104,370,l)
);
}
);
width = 604;
}
);
note = B;
unicode = 66;
},
{
glyphname = C;
kernLeft = C;
kernRight = C;
lastChange = "2023-04-04 02:16:30 +0000";
layers = (
{
hints = (
{
horizontal = 1;
place = (-7, 14);
place = (-7, 14);
type = Stem;
},
{
horizontal = 1;
place = (708, 14);
place = (708, 14);
type = Stem;
},
{
place = (50, 15);
place = (50, 15);
type = Stem;
}
);
layerId = m01;
shapes = (
{
closed = 1;
nodes = (
(644,641,o),
(555,722,o),
(413,722,cs),
(183,722,o),
(50,510,o),
(50,304,cs),
(50,123,o),
(147,-7,o),
(338,-7,cs),
(503,-7,o),
(605,113,o),
(636,249,c),
(621,249,l),
(591,120,o),
(496,7,o),
(338,7,cs),
(157,7,o),
(65,131,o),
(65,304,cs),
(65,504,o),
(191,708,o),
(413,708,cs),
(555,708,o),
(628,631,o),
(645,516,c),
(660,516,l)
);
}
);
width = 660;
}
);
note = C;
unicode = 67;
},
{
glyphname = D;
kernRight = Eth;
lastChange = "2023-04-04 19:44:23 +0000";
layers = (
{
hints = (
{
horizontal = 1;
place = (0, 14);
place = (0, 14);
type = Stem;
},
{
horizontal = 1;
place = (701, 14);
place = (701, 14);
type = Stem;
},
{
place = (610, 15);
place = (610, 15);
type = Stem;
}
);
layerId = m01;
shapes = (
{
closed = 1;
nodes = (
(16,0,l),
(241,0,ls),
(502,0,o),
(625,198,o),
(625,425,cs),
(625,594,o),
(527,715,o),
(349,715,cs),
(153,715,l)
);
},
{
closed = 1;
nodes = (
(349,701,ls),
(520,701,o),
(610,585,o),
(610,425,cs),
(610,206,o),
(492,14,o),
(241,14,cs),
(34,14,l),
(166,701,l)
);
}
);
width = 637;
}
);
note = D;
unicode = 68;
},
{
glyphname = E;
kernRight = E;
layers = (
{
hints = (
{
horizontal = 1;
place = (0, 14);
place = (0, 14);
type = Stem;
},
{
horizontal = 1;
place = (364, 14);
place = (364, 14);
type = Stem;
},
{
horizontal = 1;
place = (701, 14);
place = (701, 14);
type = Stem;
},
{
place = (16, 566);
place = (16, 566);
type = Stem;
}
);
layerId = m01;
shapes = (
{
closed = 1;
nodes = (
(16,0,l),
(466,0,l),
(469,14,l),
(34,14,l),
(101,364,l),
(481,364,l),
(484,378,l),
(104,378,l),
(166,701,l),
(579,701,l),
(582,715,l),
(153,715,l)
);
}
);
width = 553;
}
);
note = E;
unicode = 69;
},
{
glyphname = F;
kernRight = F;
layers = (
{
hints = (
{
horizontal = 1;
place = (0, 21);
target = up;
type = BottomGhost;
},
{
horizontal = 1;
place = (368, 14);
place = (368, 14);
type = Stem;
},
{
horizontal = 1;
place = (701, 14);
place = (701, 14);
type = Stem;
},
{
place = (16, 579);
place = (16, 579);
type = Stem;
}
);
layerId = m01;
shapes = (
{
closed = 1;
nodes = (
(16,0,l),
(31,0,l),
(102,368,l),
(478,368,l),
(481,382,l),
(105,382,l),
(166,701,l),
(592,701,l),
(595,715,l),
(153,715,l)
);
}
);
width = 535;
}
);
note = F;
unicode = 70;
},
{
glyphname = G;
kernLeft = C;
kernRight = G;
lastChange = "2023-04-04 02:27:11 +0000";
layers = (
{
hints = (
{
horizontal = 1;
place = (-7, 14);
place = (-7, 14);
type = Stem;
},
{
horizontal = 1;
place = (335, 14);
place = (335, 14);
type = Stem;
},
{
horizontal = 1;
place = (708, 14);
place = (708, 14);
type = Stem;
},
{
place = (50, 14);
place = (50, 14);
type = Stem;
},
{
horizontal = 1;
place = (0, 21);
target = up;
type = BottomGhost;
}
);
layerId = m01;
shapes = (
{
closed = 1;
nodes = (
(650,640,o),
(561,722,o),
(411,722,cs),
(181,722,o),
(50,510,o),
(50,304,cs),
(50,123,o),
(145,-7,o),
(336,-7,cs),
(464,-7,o),
(557,66,o),
(604,165,c),
(572,0,l),
(587,0,l),
(655,349,l),
(377,349,l),
(374,335,l),
(637,335,l),
(622,258,ls),
(597,126,o),
(496,7,o),
(336,7,cs),
(155,7,o),
(64,131,o),
(64,304,cs),
(64,504,o),
(188,708,o),
(411,708,cs),
(554,708,o),
(635,631,o),
(653,516,c),
(667,516,l)
);
}
);
width = 695;
}
);
note = G;
unicode = 71;
},
{
glyphname = H;
layers = (
{
hints = (
{
horizontal = 1;
place = (0, 21);
target = up;
type = BottomGhost;
},
{
horizontal = 1;
place = (374, 14);
place = (374, 14);
type = Stem;
},
{
horizontal = 1;
place = (715, -20);
target = down;
type = TopGhost;
},
{
place = (16, 660);
place = (16, 660);
type = Stem;
}
);
layerId = m01;
shapes = (
{
closed = 1;
nodes = (
(16,0,l),
(31,0,l),
(104,374,l),
(595,374,l),
(522,0,l),
(537,0,l),
(676,715,l),
(661,715,l),
(597,388,l),
(106,388,l),
(170,715,l),
(155,715,l)
);
}
);
width = 654;
}
);
note = H;
unicode = 72;
},
{
glyphname = I;
lastChange = "2023-04-04 02:29:20 +0000";
layers = (
{
hints = (
{
horizontal = 1;
place = (0, 21);
target = up;
type = BottomGhost;
},
{
horizontal = 1;
place = (715, -20);
target = down;
type = TopGhost;
},
{
place = (18, 154);
place = (18, 154);
type = Stem;
}
);
layerId = m01;
shapes = (
{
closed = 1;
nodes = (
(18,0,l),
(33,0,l),
(172,715,l),
(157,715,l)
);
}
);
width = 152;
}
);
note = I;
unicode = 73;
},
{
glyphname = J;
kernLeft = J;
kernRight = J;
lastChange = "2023-04-04 20:02:19 +0000";
layers = (
{
hints = (
{
horizontal = 1;
place = (-7, 14);
place = (-7, 14);
type = Stem;
},
{
horizontal = 1;
place = (715, -20);
target = down;
type = TopGhost;
},
{
place = (2, 15);
place = (2, 15);
type = Stem;
}
);
layerId = m01;
shapes = (
{
closed = 1;
nodes = (
(365,170,ls),
(346,74,o),
(291,7,o),
(180,7,cs),
(70,7,o),
(7,61,o),
(20,173,cs),
(25,220,l),
(10,220,l),
(5,172,ls),
(-9,53,o),
(60,-7,o),
(180,-7,cs),
(300,-7,o),
(360,64,o),
(380,169,cs),
(485,715,l),
(470,715,l)
);
}
);
width = 454;
}
);
note = J;
unicode = 74;
},
{
glyphname = K;
kernRight = K;
lastChange = "2023-04-04 03:11:29 +0000";
layers = (
{
hints = (
{
horizontal = 1;
place = (0, 21);
target = up;
type = BottomGhost;
},
{
horizontal = 1;
place = (715, -20);
target = down;
type = TopGhost;
},
{
place = (16, 594);
place = (16, 594);
type = Stem;
}
);
layerId = m01;
shapes = (
{
closed = 1;
nodes = (
(16,0,l),
(31,0,l),
(82,264,l),
(264,420,l),
(518,0,l),
(535,0,l),
(276,430,l),
(610,715,l),
(588,715,l),
(86,285,l),
(170,715,l),
(155,715,l)
);
}
);
width = 563;
}
);
note = K;
unicode = 75;
},
{
glyphname = L;
kernRight = L;
lastChange = "2023-04-04 20:02:59 +0000";
layers = (
{
hints = (
{
horizontal = 1;
place = (0, 14);
place = (0, 14);
type = Stem;
},
{
horizontal = 1;
place = (715, -20);
target = down;
type = TopGhost;
},
{
place = (16, 433);
place = (16, 433);
type = Stem;
}
);
layerId = m01;
shapes = (
{
closed = 1;
nodes = (
(16,0,l),
(446,0,l),
(449,14,l),
(33,14,l),
(169,715,l),
(154,715,l)
);
}
);
width = 509;
}
);
note = L;
unicode = 76;
},
{
glyphname = M;
lastChange = "2023-04-04 03:12:16 +0000";
layers = (
{
hints = (
{
horizontal = 1;
place = (0, 18);
place = (0, 18);
type = Stem;
},
{
horizontal = 1;
place = (692, 23);
place = (692, 23);
type = Stem;
},
{
place = (16, 783);
place = (16, 783);
type = Stem;
}
);
layerId = m01;
shapes = (
{
closed = 1;
nodes = (
(16,0,l),
(31,0,l),
(165,692,l),
(165,692,l),
(329,0,l),
(345,0,l),
(779,692,l),
(779,692,l),
(645,0,l),
(660,0,l),
(799,715,l),
(776,715,l),
(340,18,l),
(339,18,l),
(175,715,l),
(154,715,l)
);
}
);
width = 777;
}
);
note = M;
unicode = 77;
},
{
glyphname = N;
lastChange = "2023-04-04 03:13:47 +0000";
layers = (
{
hints = (
{
horizontal = 1;
place = (0, 25);
place = (0, 25);
type = Stem;
},
{
horizontal = 1;
place = (692, 23);
place = (692, 23);
type = Stem;
},
{
place = (16, 655);
place = (16, 655);
type = Stem;
}
);
layerId = m01;
shapes = (
{
closed = 1;
nodes = (
(16,0,l),
(31,0,l),
(165,692,l),
(165,692,l),
(517,0,l),
(532,0,l),
(671,715,l),
(656,715,l),
(522,25,l),
(522,25,l),
(171,715,l),
(154,715,l)
);
}
);
width = 649;
}
);
note = N;
unicode = 78;
},
{
glyphname = O;
kernLeft = C;
kernRight = O;
lastChange = "2023-04-04 19:44:29 +0000";
layers = (
{
hints = (
{
horizontal = 1;
place = (-8, 14);
place = (-8, 14);
type = Stem;
},
{
horizontal = 1;
place = (709, 14);
place = (709, 14);
type = Stem;
},
{
place = (50, 15);
place = (50, 15);
type = Stem;
},
{
place = (704, 15);
place = (704, 15);
type = Stem;
}
);
layerId = m01;
shapes = (
{
closed = 1;
nodes = (
(199,723,o),
(50,536,o),
(50,314,cs),
(50,109,o),
(189,-8,o),
(360,-8,cs),
(579,-8,o),
(719,175,o),
(719,400,cs),
(719,606,o),
(583,723,o),
(412,723,cs)
);
},
{
closed = 1;
nodes = (
(575,709,o),
(704,598,o),
(704,400,cs),
(704,183,o),
(571,6,o),
(360,6,cs),
(197,6,o),
(65,117,o),
(65,314,cs),
(65,528,o),
(207,709,o),
(412,709,cs)
);
}
);
width = 732;
}
);
note = O;
unicode = 79;
},
{
glyphname = P;
kernRight = P;
lastChange = "2023-04-04 19:44:32 +0000";
layers = (
{
hints = (
{
horizontal = 1;
place = (0, 21);
target = up;
type = BottomGhost;
},
{
horizontal = 1;
place = (333, 14);
place = (333, 14);
type = Stem;
},
{
horizontal = 1;
place = (701, 14);
place = (701, 14);
type = Stem;
},
{
place = (569, 15);
place = (569, 15);
type = Stem;
}
);
layerId = m01;
shapes = (
{
closed = 1;
nodes = (
(16,0,l),
(31,0,l),
(95,333,l),
(318,333,ls),
(479,333,o),
(584,396,o),
(584,541,cs),
(584,660,o),
(507,715,o),
(388,715,cs),
(153,715,l)
);
},
{
closed = 1;
nodes = (
(387,701,ls),
(487,701,o),
(569,659,o),
(569,541,cs),
(569,403,o),
(469,347,o),
(317,347,cs),
(97,347,l),
(166,701,l)
);
}
);
width = 554;
}
);
note = P;
unicode = 80;
},
{
glyphname = Q;
kernLeft = C;
kernRight = Q;
lastChange = "2023-04-04 19:44:34 +0000";
layers = (
{
hints = (
{
horizontal = 1;
place = (-8, 14);
place = (-8, 14);
type = Stem;
},
{
horizontal = 1;
place = (709, 14);
place = (709, 14);
type = Stem;
},
{
place = (50, 15);
place = (50, 15);
type = Stem;
},
{
place = (704, 15);
place = (704, 15);
type = Stem;
}
);
layerId = m01;
shapes = (
{
closed = 1;
nodes = (
(199,723,o),
(50,536,o),
(50,314,cs),
(50,109,o),
(189,-8,o),
(360,-8,cs),
(432,-8,o),
(496,12,o),
(549,47,c),
(656,-56,l),
(665,-45,l),
(561,55,l),
(661,128,o),
(719,255,o),
(719,400,cs),
(719,606,o),
(583,723,o),
(412,723,cs)
);
},
{
closed = 1;
nodes = (
(575,709,o),
(704,598,o),
(704,400,cs),
(704,259,o),
(648,135,o),
(551,65,c),
(466,149,l),
(456,138,l),
(539,57,l),
(489,25,o),
(428,6,o),
(360,6,cs),
(197,6,o),
(65,117,o),
(65,314,cs),
(65,528,o),
(207,709,o),
(412,709,cs)
);
}
);
width = 732;
}
);
note = Q;
unicode = 81;
},
{
glyphname = R;
kernRight = R;
lastChange = "2023-04-04 19:58:41 +0000";
layers = (
{
hints = (
{
horizontal = 1;
place = (0, 21);
target = up;
type = BottomGhost;
},
{
horizontal = 1;
place = (335, 14);
place = (335, 14);
type = Stem;
},
{
horizontal = 1;
place = (701, 14);
place = (701, 14);
type = Stem;
},
{
place = (520, 15);
place = (520, 15);
type = Stem;
},
{
place = (589, 15);
place = (589, 15);
type = Stem;
}
);
layerId = m01;
shapes = (
{
closed = 1;
nodes = (
(15,0,l),
(30,0,l),
(95,335,l),
(367,335,ls),
(469,335,o),
(520,315,o),
(520,188,cs),
(520,153,o),
(518,116,o),
(518,95,cs),
(518,37,o),
(525,13,o),
(535,0,c),
(551,0,l),
(551,2,l),
(541,17,o),
(533,33,o),
(533,95,cs),
(533,118,o),
(535,163,o),
(535,188,cs),
(535,289,o),
(504,329,o),
(439,343,c),
(439,343,l),
(539,364,o),
(604,431,o),
(604,533,cs),
(604,666,o),
(511,715,o),
(413,715,cs),
(154,715,l)
);
},
{
closed = 1;
nodes = (
(413,701,ls),
(503,701,o),
(589,657,o),
(589,533,cs),
(589,416,o),
(500,349,o),
(372,349,cs),
(98,349,l),
(166,701,l)
);
}
);
width = 618;
}
);
note = R;
unicode = 82;
},
{
glyphname = S;
kernLeft = Scaron;
kernRight = Scaron;
lastChange = "2023-04-04 03:14:58 +0000";
layers = (
{
hints = (
{
horizontal = 1;
place = (-8, 14);
place = (-8, 14);
type = Stem;
},
{
horizontal = 1;
place = (709, 14);
place = (709, 14);
type = Stem;
},
{
place = (13, 14);
place = (13, 14);
type = Stem;
},
{
place = (96, 15);
place = (96, 15);
type = Stem;
},
{
place = (510, 15);
place = (510, 15);
type = Stem;
},
{
place = (542, 14);
place = (542, 14);
type = Stem;
}
);
layerId = m01;
shapes = (
{
closed = 1;
nodes = (
(548,636,o),
(474,723,o),
(314,723,cs),
(180,723,o),
(96,656,o),
(96,556,cs),
(96,461,o),
(158,425,o),
(294,375,cs),
(435,323,o),
(510,299,o),
(510,190,cs),
(510,74,o),
(407,6,o),
(274,6,cs),
(145,6,o),
(28,76,o),
(27,231,c),
(13,231,l),
(13,67,o),
(137,-8,o),
(274,-8,cs),
(415,-8,o),
(525,67,o),
(525,190,cs),
(525,306,o),
(445,335,o),
(297,389,cs),
(169,436,o),
(111,469,o),
(111,556,cs),
(111,648,o),
(188,709,o),
(314,709,cs),
(465,709,o),
(534,628,o),
(542,522,c),
(556,522,l)
);
}
);
width = 570;
}
);
note = S;
unicode = 83;
},
{
glyphname = T;
kernLeft = T;
kernRight = T;
lastChange = "2023-04-04 03:15:28 +0000";
layers = (
{
hints = (
{
horizontal = 1;
place = (0, 21);
target = up;
type = BottomGhost;
},
{
horizontal = 1;
place = (701, 14);
place = (701, 14);
type = Stem;
},
{
place = (90, 518);
place = (90, 518);
type = Stem;
}
);
layerId = m01;
shapes = (
{
closed = 1;
nodes = (
(90,701,l),
(339,701,l),
(203,0,l),
(218,0,l),
(354,701,l),
(605,701,l),
(608,715,l),
(93,715,l)
);
}
);
width = 536;
}
);
note = T;
unicode = 84;
},
{
glyphname = U;
kernLeft = U;
kernRight = U;
lastChange = "2023-04-04 03:15:33 +0000";
layers = (
{
hints = (
{
horizontal = 1;
place = (-7, 14);
place = (-7, 14);
type = Stem;
},
{
horizontal = 1;
place = (715, -20);
target = down;
type = TopGhost;
},
{
place = (46, 16);
place = (46, 16);
type = Stem;
}
);
layerId = m01;
shapes = (
{
closed = 1;
nodes = (
(53,260,ls),
(19,86,o),
(120,-7,o),
(288,-7,cs),
(430,-7,o),
(530,72,o),
(557,209,cs),
(657,715,l),
(642,715,l),
(542,211,ls),
(516,81,o),
(423,7,o),
(288,7,cs),
(117,7,o),
(38,104,o),
(68,258,cs),
(157,715,l),
(142,715,l)
);
}
);
width = 623;
}
);
note = U;
unicode = 85;
},
{
glyphname = V;
kernLeft = V;
kernRight = V;
lastChange = "2023-04-04 03:15:50 +0000";
layers = (
{
hints = (
{
horizontal = 1;
place = (0, 21);
target = up;
type = BottomGhost;
},
{
horizontal = 1;
place = (715, -20);
target = down;
type = TopGhost;
},
{
place = (90, 563);
place = (90, 563);
type = Stem;
}
);
layerId = m01;
shapes = (
{
closed = 1;
nodes = (
(240,0,l),
(254,0,l),
(653,715,l),
(637,715,l),
(250,22,l),
(250,22,l),
(105,715,l),
(90,715,l)
);
}
);
width = 571;
}
);
note = V;
unicode = 86;
},
{
glyphname = W;
kernLeft = W;
kernRight = W;
lastChange = "2023-04-04 04:29:39 +0000";
layers = (
{
hints = (
{
horizontal = 1;
place = (0, 21);
target = up;
type = BottomGhost;
},
{
horizontal = 1;
place = (692, 23);
place = (692, 23);
type = Stem;
},
{
place = (94, 846);
place = (94, 846);
type = Stem;
}
);
layerId = m01;
shapes = (
{
closed = 1;
nodes = (
(183,0,l),
(196,0,l),
(511,692,l),
(511,692,l),
(585,0,l),
(600,0,l),
(940,715,l),
(924,715,l),
(597,27,l),
(597,27,l),
(523,715,l),
(506,715,l),
(194,27,l),
(194,27,l),
(108,715,l),
(94,715,l)
);
}
);
width = 865;
}
);
note = W;
unicode = 87;
},
{
glyphname = X;
kernLeft = X;
kernRight = X;
lastChange = "2023-04-04 04:44:05 +0000";
layers = (
{
hints = (
{
horizontal = 1;
place = (0, 21);
target = up;
type = BottomGhost;
},
{
horizontal = 1;
place = (715, -20);
target = down;
type = TopGhost;
},
{
place = (-38, 651);
place = (-38, 651);
type = Stem;
}
);
layerId = m01;
shapes = (
{
closed = 1;
nodes = (
(288,368,l),
(-38,0,l),
(-20,0,l),
(295,355,l),
(295,355,l),
(495,0,l),
(511,0,l),
(305,367,l),
(613,715,l),
(595,715,l),
(298,379,l),
(298,379,l),
(109,715,l),
(93,715,l)
);
}
);
width = 554;
}
);
note = X;
unicode = 88;
},
{
glyphname = Y;
kernLeft = Yacute;
kernRight = Yacute;
lastChange = "2023-04-04 04:47:05 +0000";
layers = (
{
hints = (
{
horizontal = 1;
place = (0, 21);
target = up;
type = BottomGhost;
},
{
horizontal = 1;
place = (715, -20);
target = down;
type = TopGhost;
},
{
place = (81, 563);
place = (81, 563);
type = Stem;
}
);
layerId = m01;
shapes = (
{
closed = 1;
nodes = (
(287,328,l),
(223,0,l),
(238,0,l),
(302,328,l),
(644,715,l),
(625,715,l),
(296,342,l),
(296,342,l),
(97,715,l),
(81,715,l)
);
}
);
width = 556;
}
);
note = Y;
unicode = 89;
},
{
glyphname = Z;
kernLeft = Zcaron;
kernRight = Zcaron;
lastChange = "2023-04-04 17:05:43 +0000";
layers = (
{
hints = (
{
horizontal = 1;
place = (0, 14);
place = (0, 14);
type = Stem;
},
{
horizontal = 1;
place = (701, 14);
place = (701, 14);
type = Stem;
},
{
place = (-20, 621);
place = (-20, 621);
type = Stem;
}
);
layerId = m01;
shapes = (
{
closed = 1;
nodes = (
(134,701,l),
(579,701,l),
(579,701,l),
(-17,14,l),
(-20,0,l),
(485,0,l),
(488,14,l),
(1,14,l),
(1,14,l),
(598,701,l),
(601,715,l),
(137,715,l)
);
}
);
width = 560;
}
);
note = Z;
unicode = 90;
},
{
glyphname = a;
kernLeft = a;
kernRight = a;
lastChange = "2023-04-04 20:12:33 +0000";
layers = (
{
hints = (
{
horizontal = 1;
place = (-7, 14);
place = (-7, 14);
type = Stem;
},
{
horizontal = 1;
place = (510, 14);
place = (510, 14);
type = Stem;
},
{
place = (9, 15);
place = (9, 15);
type = Stem;
},
{
place = (361, 14);
place = (361, 14);
type = Stem;
},
{
place = (424, 16);
place = (424, 16);
type = Stem;
},
{
horizontal = 1;
place = (0, 13);
place = (0, 13);
type = Stem;
}
);
layerId = m01;
shapes = (
{
closed = 1;
nodes = (
(83,374,l),
(99,446,o),
(149,510,o),
(275,510,cs),
(379,510,o),
(424,466,o),
(424,395,cs),
(424,310,o),
(389,289,o),
(215,282,cs),
(65,276,o),
(9,224,o),
(9,136,cs),
(9,49,o),
(76,-7,o),
(171,-7,cs),
(264,-7,o),
(331,39,o),
(371,108,c),
(371,108,l),
(364,77,ls),
(353,29,o),
(368,0,o),
(405,0,cs),
(413,0,o),
(421,2,o),
(424,3,c),
(427,16,l),
(426,16,l),
(423,15,o),
(415,13,o),
(407,13,cs),
(377,13,o),
(370,35,o),
(379,77,cs),
(435,351,ls),
(458,463,o),
(396,524,o),
(275,524,cs),
(143,524,o),
(84,452,o),
(69,374,c)
);
},
{
closed = 1;
nodes = (
(386,179,ls),
(367,83,o),
(284,7,o),
(171,7,cs),
(81,7,o),
(24,59,o),
(24,136,cs),
(24,216,o),
(72,262,o),
(216,269,cs),
(341,275,o),
(390,288,o),
(414,318,c)
);
}
);
width = 479;
}
);
note = a;
unicode = 97;
},
{
glyphname = b;
kernLeft = b;
kernRight = thorn;
lastChange = "2023-04-04 19:44:43 +0000";
layers = (
{
hints = (
{
horizontal = 1;
place = (-8, 14);
place = (-8, 14);
type = Stem;
},
{
horizontal = 1;
place = (510, 14);
place = (510, 14);
type = Stem;
},
{
horizontal = 1;
place = (715, -20);
target = down;
type = TopGhost;
},
{
place = (52, 13);
place = (52, 13);
type = Stem;
},
{
place = (482, 15);
place = (482, 15);
type = Stem;
},
{
horizontal = 1;
place = (0, 21);
target = up;
type = BottomGhost;
}
);
layerId = m01;
shapes = (
{
closed = 1;
nodes = (
(4,0,l),
(19,0,l),
(52,171,l),
(52,171,l),
(61,88,o),
(117,-8,o),
(244,-8,cs),
(413,-8,o),
(497,165,o),
(497,312,cs),
(497,432,o),
(430,524,o),
(315,524,cs),
(204,524,o),
(131,457,o),
(90,369,c),
(90,369,l),
(157,715,l),
(142,715,l)
);
},
{
closed = 1;
nodes = (
(422,510,o),
(482,424,o),
(482,312,cs),
(482,171,o),
(402,6,o),
(244,6,cs),
(114,6,o),
(65,116,o),
(65,197,cs),
(65,330,o),
(139,510,o),
(315,510,cs)
);
}
);
width = 522;
}
);
note = b;
unicode = 98;
},
{
glyphname = c;
kernLeft = c;
kernRight = c;
lastChange = "2023-04-04 05:11:26 +0000";
layers = (
{
hints = (
{
horizontal = 1;
place = (-7, 14);
place = (-7, 14);
type = Stem;
},
{
horizontal = 1;
place = (510, 14);
place = (510, 14);
type = Stem;
},
{
place = (23, 15);
place = (23, 15);
type = Stem;
},
{
place = (459, 14);
place = (459, 14);
type = Stem;
}
);
layerId = m01;
shapes = (
{
closed = 1;
nodes = (
(462,449,o),
(400,524,o),
(287,524,cs),
(124,524,o),
(23,368,o),
(23,211,cs),
(23,68,o),
(106,-7,o),
(229,-7,cs),
(335,-7,o),
(419,64,o),
(450,173,c),
(436,173,l),
(405,72,o),
(327,7,o),
(229,7,cs),
(115,7,o),
(38,78,o),
(38,211,cs),
(38,360,o),
(132,510,o),
(287,510,cs),
(391,510,o),
(448,443,o),
(459,359,c),
(473,359,l)
);
}
);
width = 484;
}
);
note = c;
unicode = 99;
},
{
glyphname = d;
kernLeft = d;
lastChange = "2023-04-04 19:44:45 +0000";
layers = (
{
hints = (
{
horizontal = 1;
place = (-8, 14);
place = (-8, 14);
type = Stem;
},
{
horizontal = 1;
place = (510, 14);
place = (510, 14);
type = Stem;
},
{
horizontal = 1;
place = (715, -20);
target = down;
type = TopGhost;
},
{
place = (22, 15);
place = (22, 15);
type = Stem;
},
{
place = (462, 12);
place = (462, 12);
type = Stem;
},
{
horizontal = 1;
place = (0, 21);
target = up;
type = BottomGhost;
}
);
layerId = m01;
shapes = (
{
closed = 1;
nodes = (
(474,345,l),
(474,345,l),
(464,430,o),
(409,524,o),
(290,524,cs),
(113,524,o),
(22,346,o),
(22,201,cs),
(22,80,o),
(99,-8,o),
(215,-8,cs),
(323,-8,o),
(397,60,o),
(436,148,c),
(436,148,l),
(408,0,l),
(423,0,l),
(561,715,l),
(546,715,l)
);
},
{
closed = 1;
nodes = (
(412,510,o),
(462,400,o),
(462,319,cs),
(462,186,o),
(384,6,o),
(215,6,cs),
(106,6,o),
(37,91,o),
(37,201,cs),
(37,340,o),
(123,510,o),
(290,510,cs)
);
}
);
width = 527;
}
);
note = d;
unicode = 100;
},
{
glyphname = e;
kernLeft = c;
kernRight = e;
lastChange = "2023-04-04 19:44:47 +0000";
layers = (
{
hints = (
{
horizontal = 1;
place = (-8, 14);
place = (-8, 14);
type = Stem;
},
{
horizontal = 1;
place = (259, 14);
place = (259, 14);
type = Stem;
},
{
horizontal = 1;
place = (510, 14);
place = (510, 14);
type = Stem;
},
{
place = (23, 15);
place = (23, 15);
type = Stem;
},
{
place = (457, 19);
place = (457, 19);
type = Stem;
}
);
layerId = m01;
shapes = (
{
closed = 1;
nodes = (
(492,405,o),
(427,524,o),
(281,524,cs),
(130,524,o),
(23,376,o),
(23,214,cs),
(23,76,o),
(110,-8,o),
(231,-8,cs),
(348,-8,o),
(416,65,o),
(449,151,c),
(435,151,l),
(401,70,o),
(338,6,o),
(231,6,cs),
(93,6,o),
(22,120,o),
(41,259,c),
(472,259,l)
);
},
{
closed = 1;
nodes = (
(43,273,l),
(65,402,o),
(157,510,o),
(281,510,cs),
(420,510,o),
(471,398,o),
(457,273,c)
);
}
);
width = 495;
}
);
note = e;
unicode = 101;
},
{
glyphname = f;
kernLeft = f;
kernRight = f;
lastChange = "2023-04-04 05:28:58 +0000";
layers = (
{
hints = (
{
horizontal = 1;
place = (0, 21);
target = up;
type = BottomGhost;
},
{
horizontal = 1;
place = (503, 14);
place = (503, 14);
type = Stem;
},
{
horizontal = 1;
place = (707, 14);
place = (707, 14);
type = Stem;
},
{
place = (42, 275);
place = (42, 275);
type = Stem;
}
);
layerId = m01;
shapes = (
{
closed = 1;
nodes = (
(70,503,l),
(140,503,l),
(42,0,l),
(57,0,l),
(155,503,l),
(274,503,l),
(277,517,l),
(157,517,l),
(178,621,ls),
(193,696,o),
(228,707,o),
(276,707,cs),
(288,707,o),
(304,706,o),
(314,705,c),
(317,719,l),
(307,720,o),
(290,721,o),
(276,721,cs),
(216,721,o),
(179,702,o),
(163,622,cs),
(142,517,l),
(73,517,l)
);
}
);
width = 255;
}
);
note = f;
unicode = 102;
},
{
glyphname = g;
kernLeft = g;
kernRight = g;
lastChange = "2023-04-04 19:44:51 +0000";
layers = (
{
hints = (
{
horizontal = 1;
place = (-173, 14);
place = (-173, 14);
type = Stem;
},
{
horizontal = 1;
place = (25, 14);
place = (25, 14);
type = Stem;
},
{
horizontal = 1;
place = (517, -20);
target = down;
type = TopGhost;
},
{
place = (8, 14);
place = (8, 14);
type = Stem;
},
{
place = (454, 12);
place = (454, 12);
type = Stem;
},
{
horizontal = 1;
place = (510, 14);
place = (510, 14);
type = Stem;
},
{
place = (25, 15);
place = (25, 15);
type = Stem;
}
);
layerId = m01;
shapes = (
{
closed = 1;
nodes = (
(466,352,l),
(466,352,l),
(456,449,o),
(391,524,o),
(280,524,cs),
(110,524,o),
(25,364,o),
(25,224,cs),
(25,113,o),
(89,25,o),
(215,25,cs),
(321,25,o),
(391,89,o),
(429,165,c),
(429,165,l),
(398,6,ls),
(380,-84,o),
(322,-159,o),
(196,-159,cs),
(90,-159,o),
(29,-116,o),
(22,-41,c),
(8,-41,l),
(12,-122,o),
(81,-173,o),
(196,-173,cs),
(334,-173,o),
(395,-86,o),
(413,4,cs),
(513,517,l),
(498,517,l)
);
},
{
closed = 1;
nodes = (
(395,510,o),
(454,425,o),
(454,320,cs),
(454,199,o),
(376,39,o),
(215,39,cs),
(99,39,o),
(40,121,o),
(40,224,cs),
(40,358,o),
(120,510,o),
(280,510,cs)
);
}
);
width = 518;
}
);
note = g;
unicode = 103;
},
{
glyphname = h;
kernLeft = b;
kernRight = h;
lastChange = "2023-04-04 05:35:09 +0000";
layers = (
{
hints = (
{
horizontal = 1;
place = (0, 21);
target = up;
type = BottomGhost;
},
{
horizontal = 1;
place = (509, 14);
place = (509, 14);
type = Stem;
},
{
horizontal = 1;
place = (715, -20);
target = down;
type = TopGhost;
},
{
place = (429, 15);
place = (429, 15);
type = Stem;
}
);
layerId = m01;
shapes = (
{
closed = 1;
nodes = (
(4,0,l),
(19,0,l),
(78,304,ls),
(96,397,o),
(205,509,o),
(329,509,cs),
(417,509,o),
(439,445,o),
(425,371,cs),
(353,0,l),
(368,0,l),
(440,370,ls),
(458,463,o),
(420,523,o),
(329,523,cs),
(224,523,o),
(132,449,o),
(92,373,c),
(91,373,l),
(158,715,l),
(143,715,l)
);
}
);
width = 471;
}
);
note = h;
unicode = 104;
},
{
glyphname = i;
kernLeft = b;
lastChange = "2023-04-04 05:36:58 +0000";
layers = (
{
hints = (
{
horizontal = 1;
place = (0, 21);
target = up;
type = BottomGhost;
},
{
horizontal = 1;
place = (517, -20);
target = down;
type = TopGhost;
},
{
horizontal = 1;
place = (650, 56);
place = (650, 56);
type = Stem;
},
{
place = (4, 152);
place = (4, 152);
type = Stem;
}
);
layerId = m01;
shapes = (
{
closed = 1;
nodes = (
(4,0,l),
(19,0,l),
(119,517,l),
(104,517,l)
);
},
{
closed = 1;
nodes = (
(130,650,l),
(145,650,l),
(156,706,l),
(141,706,l)
);
}
);
width = 122;
}
);
note = i;
unicode = 105;
},
{
glyphname = j;
kernLeft = j;
kernRight = j;
lastChange = "2023-04-04 05:40:21 +0000";
layers = (
{
hints = (
{
horizontal = 1;
place = (-147, 14);
place = (-147, 14);
type = Stem;
},
{
horizontal = 1;
place = (517, -20);
target = down;
type = TopGhost;
},
{
horizontal = 1;
place = (650, 56);
place = (650, 56);
type = Stem;
},
{
place = (-104, 284);
place = (-104, 284);
type = Stem;
}
);
layerId = m01;
shapes = (
{
closed = 1;
nodes = (
(15,-66,ls),
(6,-111,o),
(-9,-133,o),
(-59,-133,cs),
(-73,-133,o),
(-89,-130,o),
(-101,-126,c),
(-104,-140,l),
(-92,-144,o),
(-75,-147,o),
(-59,-147,cs),
(-8,-147,o),
(18,-128,o),
(29,-72,cs),
(144,517,l),
(129,517,l)
);
},
{
closed = 1;
nodes = (
(154,650,l),
(169,650,l),
(180,706,l),
(165,706,l)
);
}
);
width = 146;
}
);
note = j;
unicode = 106;
},
{
glyphname = k;
kernLeft = b;
kernRight = k;
lastChange = "2023-04-04 05:43:47 +0000";
layers = (
{
hints = (
{
horizontal = 1;
place = (0, 21);
target = up;
type = BottomGhost;
},
{
horizontal = 1;
place = (517, -20);
target = down;
type = TopGhost;
},
{
horizontal = 1;
place = (715, -20);
target = down;
type = TopGhost;
},
{
place = (4, 438);
place = (4, 438);
type = Stem;
}
);
layerId = m01;
shapes = (
{
closed = 1;
nodes = (
(4,0,l),
(19,0,l),
(58,202,l),
(195,315,l),
(358,0,l),
(374,0,l),
(207,324,l),
(442,517,l),
(420,517,l),
(62,223,l),
(158,715,l),
(143,715,l)
);
}
);
width = 414;
}
);
note = k;
unicode = 107;
},
{
glyphname = l;
kernLeft = b;
lastChange = "2023-04-04 05:47:51 +0000";
layers = (
{
hints = (
{
horizontal = 1;
place = (0, 21);
target = up;
type = BottomGhost;
},
{
horizontal = 1;
place = (715, -20);
target = down;
type = TopGhost;
},
{
place = (7, 154);
place = (7, 154);
type = Stem;
}
);
layerId = m01;
shapes = (
{
closed = 1;
nodes = (
(7,0,l),
(22,0,l),
(161,715,l),
(146,715,l)
);
}
);
width = 130;
}
);
note = l;
unicode = 108;
},
{
glyphname = m;
kernLeft = m;
kernRight = h;
lastChange = "2023-04-04 05:49:27 +0000";
layers = (
{
hints = (
{
horizontal = 1;
place = (0, 21);
target = up;
type = BottomGhost;
},
{
horizontal = 1;
place = (509, 14);
place = (509, 14);
type = Stem;
},
{
place = (385, 16);
place = (385, 16);
type = Stem;
},
{
place = (690, 16);
place = (690, 16);
type = Stem;
},
{
horizontal = 1;
place = (517, -20);
target = down;
type = TopGhost;
}
);
layerId = m01;
shapes = (
{
closed = 1;
nodes = (
(4,0,l),
(19,0,l),
(78,305,ls),
(95,392,o),
(194,509,o),
(307,509,cs),
(386,509,o),
(393,440,o),
(380,371,cs),
(308,0,l),
(323,0,l),
(381,299,ls),
(398,385,o),
(500,509,o),
(612,509,cs),
(690,509,o),
(699,447,o),
(685,372,cs),
(613,0,l),
(628,0,l),
(700,371,ls),
(717,461,o),
(698,523,o),
(612,523,cs),
(510,523,o),
(424,427,o),
(395,366,c),
(394,366,l),
(413,457,o),
(393,523,o),
(307,523,cs),
(206,523,o),
(127,440,o),
(92,374,c),
(91,374,l),
(120,517,l),
(105,517,l)
);
}
);
width = 733;
}
);
note = m;
unicode = 109;
},
{
glyphname = n;
kernLeft = m;
kernRight = h;
lastChange = "2023-04-04 05:49:50 +0000";
layers = (
{
hints = (
{
horizontal = 1;
place = (0, 21);
target = up;
type = BottomGhost;
},
{
horizontal = 1;
place = (509, 14);
place = (509, 14);
type = Stem;
},
{
place = (429, 15);
place = (429, 15);
type = Stem;
},
{
horizontal = 1;
place = (517, -20);
target = down;
type = TopGhost;
}
);
layerId = m01;
shapes = (
{
closed = 1;
nodes = (
(4,0,l),
(19,0,l),
(78,305,ls),
(97,400,o),
(205,509,o),
(329,509,cs),
(417,509,o),
(439,445,o),
(425,371,cs),
(353,0,l),
(368,0,l),
(440,370,ls),
(458,463,o),
(420,523,o),
(329,523,cs),
(224,523,o),
(132,449,o),
(92,373,c),
(91,373,l),
(120,517,l),
(105,517,l)
);
}
);
width = 471;
}
);
note = n;
unicode = 110;
},
{
glyphname = o;
kernLeft = c;
kernRight = o;
lastChange = "2023-04-04 19:44:54 +0000";
layers = (
{
hints = (
{
horizontal = 1;
place = (-8, 14);
place = (-8, 14);
type = Stem;
},
{
horizontal = 1;
place = (510, 14);
place = (510, 14);
type = Stem;
},
{
place = (23, 15);
place = (23, 15);
type = Stem;
},
{
place = (482, 15);
place = (482, 15);
type = Stem;
}
);
layerId = m01;
shapes = (
{
closed = 1;
nodes = (
(125,524,o),
(23,378,o),
(23,214,cs),
(23,73,o),
(118,-8,o),
(234,-8,cs),
(399,-8,o),
(497,140,o),
(497,300,cs),
(497,438,o),
(406,524,o),
(287,524,cs)
);
},
{
closed = 1;
nodes = (
(398,510,o),
(482,430,o),
(482,300,cs),
(482,148,o),
(390,6,o),
(234,6,cs),
(127,6,o),
(38,81,o),
(38,214,cs),
(38,370,o),
(134,510,o),
(287,510,cs)
);
}
);
width = 520;
}
);
note = o;
unicode = 111;
},
{
glyphname = p;
kernLeft = p;
kernRight = thorn;
lastChange = "2023-04-04 19:44:57 +0000";
layers = (
{
hints = (
{
horizontal = 1;
place = (-166, 21);
target = up;
type = BottomGhost;
},
{
horizontal = 1;
place = (-8, 14);
place = (-8, 14);
type = Stem;
},
{
horizontal = 1;
place = (510, 14);
place = (510, 14);
type = Stem;
},
{
place = (52, 13);
place = (52, 13);
type = Stem;
},
{
place = (482, 15);
place = (482, 15);
type = Stem;
},
{
horizontal = 1;
place = (517, -20);
target = down;
type = TopGhost;
}
);
layerId = m01;
shapes = (
{
closed = 1;
nodes = (
(-28,-166,l),
(-13,-166,l),
(52,171,l),
(52,171,l),
(61,88,o),
(117,-8,o),
(244,-8,cs),
(413,-8,o),
(497,165,o),
(497,312,cs),
(497,432,o),
(430,524,o),
(315,524,cs),
(204,524,o),
(130,456,o),
(90,369,c),
(90,369,l),
(119,517,l),
(104,517,l)
);
},
{
closed = 1;
nodes = (
(422,510,o),
(482,424,o),
(482,312,cs),
(482,171,o),
(402,6,o),
(244,6,cs),
(114,6,o),
(65,116,o),
(65,197,cs),
(65,330,o),
(139,510,o),
(315,510,cs)
);
}
);
width = 522;
}
);
note = p;
unicode = 112;
},
{
glyphname = q;
kernLeft = d;
kernRight = q;
lastChange = "2023-04-04 19:44:59 +0000";
layers = (
{
hints = (
{
horizontal = 1;
place = (-166, 21);
target = up;
type = BottomGhost;
},
{
horizontal = 1;
place = (-8, 14);
place = (-8, 14);
type = Stem;
},
{
horizontal = 1;
place = (510, 14);
place = (510, 14);
type = Stem;
},
{
place = (22, 15);
place = (22, 15);
type = Stem;
},
{
place = (462, 12);
place = (462, 12);
type = Stem;
},
{
horizontal = 1;
place = (517, -20);
target = down;
type = TopGhost;
}
);
layerId = m01;
shapes = (
{
closed = 1;
nodes = (
(508,517,l),
(474,345,l),
(474,345,l),
(464,430,o),
(409,524,o),
(290,524,cs),
(113,524,o),
(22,346,o),
(22,201,cs),
(22,80,o),
(96,-8,o),
(211,-8,cs),
(320,-8,o),
(394,59,o),
(436,148,c),
(436,148,l),
(375,-166,l),
(390,-166,l),
(523,517,l)
);
},
{
closed = 1;
nodes = (
(412,510,o),
(462,400,o),
(462,319,cs),
(462,186,o),
(384,6,o),
(211,6,cs),
(103,6,o),
(37,91,o),
(37,201,cs),
(37,340,o),
(123,510,o),
(290,510,cs)
);
}
);
width = 527;
}
);
note = q;
unicode = 113;
},
{
glyphname = r;
kernLeft = m;
kernRight = r;
lastChange = "2023-04-04 06:01:14 +0000";
layers = (
{
hints = (
{
horizontal = 1;
place = (0, 21);
target = up;
type = BottomGhost;
},
{
horizontal = 1;
place = (518, -20);
target = down;
type = TopGhost;
},
{
place = (4, 320);
place = (4, 320);
type = Stem;
},
{
horizontal = 1;
place = (510, 14);
place = (510, 14);
type = Stem;
},
{
horizontal = 1;
place = (517, -20);
target = down;
type = TopGhost;
}
);
layerId = m01;
shapes = (
{
closed = 1;
nodes = (
(4,0,l),
(19,0,l),
(76,295,ls),
(92,376,o),
(180,510,o),
(280,510,cs),
(300,510,o),
(312,507,o),
(321,505,c),
(324,518,l),
(313,522,o),
(299,524,o),
(281,524,cs),
(198,524,o),
(126,442,o),
(91,366,c),
(90,366,l),
(120,517,l),
(105,517,l)
);
}
);
width = 292;
}
);
note = r;
unicode = 114;
},
{
glyphname = s;
kernLeft = scaron;
kernRight = scaron;
lastChange = "2023-04-04 06:04:15 +0000";
layers = (
{
hints = (
{
horizontal = 1;
place = (-8, 14);
place = (-8, 14);
type = Stem;
},
{
horizontal = 1;
place = (510, 14);
place = (510, 14);
type = Stem;
},
{
place = (3, 15);
place = (3, 15);
type = Stem;
},
{
place = (65, 15);
place = (65, 15);
type = Stem;
},
{
place = (370, 15);
place = (370, 15);
type = Stem;
},
{
place = (393, 14);
place = (393, 14);
type = Stem;
}
);
layerId = m01;
shapes = (
{
closed = 1;
nodes = (
(400,468,o),
(332,524,o),
(229,524,cs),
(141,524,o),
(65,483,o),
(65,402,cs),
(65,325,o),
(129,297,o),
(222,263,cs),
(322,226,o),
(370,203,o),
(370,134,cs),
(370,42,o),
(292,6,o),
(197,6,cs),
(88,6,o),
(21,68,o),
(18,153,c),
(3,153,l),
(5,59,o),
(83,-8,o),
(197,-8,cs),
(300,-8,o),
(385,35,o),
(385,134,cs),
(385,209,o),
(337,236,o),
(226,277,cs),
(134,311,o),
(80,335,o),
(80,402,cs),
(80,476,o),
(147,510,o),
(229,510,cs),
(324,510,o),
(385,462,o),
(393,380,c),
(407,380,l)
);
}
);
width = 432;
}
);
note = s;
unicode = 115;
},
{
glyphname = t;
kernLeft = t;
kernRight = t;
lastChange = "2023-04-04 06:06:44 +0000";
layers = (
{
hints = (
{
horizontal = 1;
place = (-2, 14);
place = (-2, 14);
type = Stem;
},
{
horizontal = 1;
place = (503, 14);
place = (503, 14);
type = Stem;
},
{
horizontal = 1;
place = (680, -20);
target = down;
type = TopGhost;
},
{
place = (59, 16);
place = (59, 16);
type = Stem;
}
);
layerId = m01;
shapes = (
{
closed = 1;
nodes = (
(72,503,l),
(142,503,l),
(62,93,ls),
(51,36,o),
(74,-2,o),
(137,-2,cs),
(163,-2,o),
(183,3,o),
(195,9,c),
(198,23,l),
(182,17,o),
(164,12,o),
(138,12,cs),
(84,12,o),
(67,41,o),
(78,97,cs),
(157,503,l),
(283,503,l),
(286,517,l),
(159,517,l),
(191,680,l),
(176,680,l),
(144,517,l),
(75,517,l)
);
}
);
width = 270;
}
);
note = t;
unicode = 116;
},
{
glyphname = u;
kernLeft = u;
kernRight = u;
lastChange = "2023-04-04 06:07:04 +0000";
layers = (
{
hints = (
{
horizontal = 1;
place = (-6, 14);
place = (-6, 14);
type = Stem;
},
{
horizontal = 1;
place = (517, -20);
target = down;
type = TopGhost;
},
{
place = (24, 15);
place = (24, 15);
type = Stem;
},
{
horizontal = 1;
place = (0, 21);
target = up;
type = BottomGhost;
}
);
layerId = m01;
shapes = (
{
closed = 1;
nodes = (
(28,147,ls),
(10,53,o),
(49,-6,o),
(135,-6,cs),
(236,-6,o),
(328,68,o),
(368,144,c),
(369,144,l),
(340,0,l),
(355,0,l),
(456,517,l),
(441,517,l),
(382,212,ls),
(363,117,o),
(255,8,o),
(135,8,cs),
(51,8,o),
(28,70,o),
(43,146,cs),
(115,517,l),
(100,517,l)
);
}
);
width = 464;
}
);
note = u;
unicode = 117;
},
{
glyphname = v;
kernLeft = v;
kernRight = v;
lastChange = "2023-04-04 06:08:47 +0000";
layers = (
{
hints = (
{
horizontal = 1;
place = (0, 21);
target = up;
type = BottomGhost;
},
{
horizontal = 1;
place = (517, -20);
target = down;
type = TopGhost;
},
{
place = (49, 415);
place = (49, 415);
type = Stem;
}
);
layerId = m01;
shapes = (
{
closed = 1;
nodes = (
(154,0,l),
(170,0,l),
(464,517,l),
(448,517,l),
(165,19,l),
(165,19,l),
(64,517,l),
(49,517,l)
);
}
);
width = 419;
}
);
note = v;
unicode = 118;
},
{
glyphname = w;
kernLeft = w;
kernRight = w;
lastChange = "2023-04-04 06:11:42 +0000";
layers = (
{
hints = (
{
horizontal = 1;
place = (0, 21);
target = up;
type = BottomGhost;
},
{
horizontal = 1;
place = (493, 24);
place = (493, 24);
type = Stem;
},
{
place = (52, 689);
place = (52, 689);
type = Stem;
}
);
layerId = m01;
shapes = (
{
closed = 1;
nodes = (
(130,0,l),
(146,0,l),
(387,493,l),
(387,493,l),
(461,0,l),
(477,0,l),
(741,517,l),
(725,517,l),
(473,22,l),
(473,22,l),
(399,517,l),
(383,517,l),
(142,25,l),
(142,25,l),
(68,517,l),
(52,517,l)
);
}
);
width = 697;
}
);
note = w;
unicode = 119;
},
{
glyphname = x;
kernLeft = x;
kernRight = x;
lastChange = "2023-04-04 06:13:11 +0000";
layers = (
{
hints = (
{
horizontal = 1;
place = (0, 21);
target = up;
type = BottomGhost;
},
{
horizontal = 1;
place = (517, -20);
target = down;
type = TopGhost;
},
{
place = (-48, 495);
place = (-48, 495);
type = Stem;
}
);
layerId = m01;
shapes = (
{
closed = 1;
nodes = (
(206,277,l),
(-48,0,l),
(-28,0,l),
(214,264,l),
(214,264,l),
(357,0,l),
(373,0,l),
(224,274,l),
(447,517,l),
(428,517,l),
(217,288,l),
(217,288,l),
(93,517,l),
(76,517,l)
);
}
);
width = 429;
}
);
note = x;
unicode = 120;
},
{
glyphname = y;
kernLeft = yacute;
kernRight = yacute;
lastChange = "2023-04-04 06:34:31 +0000";
layers = (
{
hints = (
{
horizontal = 1;
place = (-168, 14);
place = (-168, 14);
type = Stem;
},
{
horizontal = 1;
place = (517, -20);
target = down;
type = TopGhost;
},
{
place = (-25, 501);
place = (-25, 501);
type = Stem;
},
{
horizontal = 1;
place = (-157, 21);
target = up;
type = BottomGhost;
}
);
layerId = m01;
shapes = (
{
closed = 1;
nodes = (
(178,20,l),
(163,-7,o),
(147,-33,o),
(132,-60,cs),
(87,-138,o),
(65,-154,o),
(24,-154,cs),
(6,-154,o),
(-10,-148,o),
(-22,-143,c),
(-25,-157,l),
(-14,-162,o),
(3,-168,o),
(24,-168,cs),
(72,-168,o),
(98,-148,o),
(145,-66,cs),
(476,517,l),
(460,517,l),
(188,39,l),
(188,39,l),
(68,517,l),
(52,517,l)
);
}
);
width = 431;
}
);
note = y;
unicode = 121;
},
